<svg id="Layer_1" data-name="Layer 1" xmlns="http://www.w3.org/2000/svg" viewBox="0 0 2233.49 589.2"><defs><style>.cls-1{fill:#5c5d60;}.cls-2,.cls-3{fill:#bbbdbf;}.cls-3{fill-rule:evenodd;}.cls-4{fill:#fff;}.cls-5{fill:#053566;}.cls-6{fill:#166db7;}.cls-7{fill:#202020;}</style></defs><title>infnet_versão principal</title><path class="cls-1" d="M721.56,220.07h22.35v156H721.56Z"/><path class="cls-1" d="M773.88,262.09h20.34V280.2h.45a34.31,34.31,0,0,1,15-15.2A46,46,0,0,1,832,259.41q21.69,0,32.19,12.63t10.5,36.32v67.72h-21v-59q0-20.55-5.36-30.17t-18.78-10.5q-17.21,0-25.92,12.63t-8.72,34.3v52.75h-21Z"/><path class="cls-1" d="M896.12,353.73a47.41,47.41,0,0,0,13.41,5.92,48.79,48.79,0,0,0,12.74,2.13,27.73,27.73,0,0,0,15-4q6.48-4,6.48-12.29a12.57,12.57,0,0,0-5-10.28q-5-4-15.75-9.16-7.16-3.36-11.4-5.82a49.81,49.81,0,0,1-8.27-6,27.8,27.8,0,0,1-6.48-8.49,24.67,24.67,0,0,1-2.46-11.18q0-17,11.28-26t28.95-9a69.43,69.43,0,0,1,12.74,1.12,124.68,124.68,0,0,1,13.41,3.35l-1.79,18.33q-3.34-2-10.73-3.91a49.19,49.19,0,0,0-11.4-1.9q-8.49,0-14.3,3.57a11.39,11.39,0,0,0-5.81,10.28,13,13,0,0,0,5,10.84q5,3.92,15.53,8.83,6.93,3.13,11.4,5.59a43.75,43.75,0,0,1,8.49,6.15,27.91,27.91,0,0,1,6.49,9,29.9,29.9,0,0,1,2.45,12.51q0,17.22-11.62,26.38t-28.16,9.16a99.17,99.17,0,0,1-16.88-1.34A47.64,47.64,0,0,1,895,372.5Z"/><path class="cls-1" d="M1049.08,279.08h-30.17v62.36q0,9.6,5,15a16.56,16.56,0,0,0,12.62,5.37,25.84,25.84,0,0,0,14.31-4v17.88c-3.13.9-6.15,1.64-9,2.24a44.31,44.31,0,0,1-8.83.89q-16.77,0-25.93-8.16t-9.16-24.92v-66.6H972.19v-17H997.9V235.72l21-6.71v33.08h30.17Z"/><path class="cls-1" d="M1090.45,236.61h-23.69V212.92h23.69Zm-22.35,25.48h21v114h-21Z"/><path class="cls-1" d="M1180.79,279.08h-30.18v62.36q0,9.6,5,15a16.58,16.58,0,0,0,12.63,5.37,25.84,25.84,0,0,0,14.31-4v17.88c-3.13.9-6.15,1.64-9.06,2.24a44.23,44.23,0,0,1-8.83.89q-16.76,0-25.92-8.16t-9.17-24.92v-66.6h-25.7v-17h25.7V235.72l21-6.71v33.08h30.18Z"/><path class="cls-1" d="M1298.31,376.08H1278V358h-.44a34.39,34.39,0,0,1-15,15.2,46.08,46.08,0,0,1-22.35,5.58q-21.68,0-32.18-12.74t-10.51-36.21V262.09h21v59q0,20.56,5.37,30.17t18.77,10.51q17.2,0,25.93-12.63t8.72-34.31V262.09h21Z"/><path class="cls-1" d="M1388.78,279.08H1358.6v62.36q0,9.6,5,15a16.58,16.58,0,0,0,12.63,5.37,25.86,25.86,0,0,0,14.31-4v17.88c-3.13.9-6.15,1.64-9.06,2.24a44.23,44.23,0,0,1-8.83.89q-16.76,0-25.92-8.16t-9.17-24.92v-66.6h-25.7v-17h25.7V235.72l21-6.71v33.08h30.18Z"/><path class="cls-1" d="M1401.78,295.17a55.53,55.53,0,0,1,11.85-19,52.35,52.35,0,0,1,18.55-12.4,62.57,62.57,0,0,1,23.58-4.36,61.71,61.71,0,0,1,23.47,4.36,52.63,52.63,0,0,1,18.44,12.4,55.5,55.5,0,0,1,11.84,19,67.14,67.14,0,0,1,4.14,23.92,63.16,63.16,0,0,1-4.25,23,59.3,59.3,0,0,1-12,19.22A53.66,53.66,0,0,1,1479,374.18a61.25,61.25,0,0,1-46.48,0,55.2,55.2,0,0,1-18.67-13A57.62,57.62,0,0,1,1401.78,342a63.91,63.91,0,0,1-4.13-22.91A67.36,67.36,0,0,1,1401.78,295.17Zm20.34,39.34a42.54,42.54,0,0,0,6.6,13.74,33.36,33.36,0,0,0,11.28,9.84,32.61,32.61,0,0,0,15.76,3.69,32,32,0,0,0,15.65-3.69,33.75,33.75,0,0,0,11.17-9.84,42.52,42.52,0,0,0,6.59-13.74,56.92,56.92,0,0,0,2.13-15.42,51.49,51.49,0,0,0-2.46-15.87,47.18,47.18,0,0,0-7-13.75,32.61,32.61,0,0,0-11.29-9.61,33.4,33.4,0,0,0-29.61,0,33.92,33.92,0,0,0-11.29,9.61,45.35,45.35,0,0,0-7.15,13.75,51.19,51.19,0,0,0-2.46,15.87A56.91,56.91,0,0,0,1422.12,334.51Z"/><path class="cls-1" d="M1601.48,220.07h22.35v156h-22.35Z"/><path class="cls-1" d="M1653.81,262.09h20.33V280.2h.45a34.31,34.31,0,0,1,15-15.2,46,46,0,0,1,22.36-5.59q21.67,0,32.18,12.63t10.51,36.32v67.72h-21v-59q0-20.55-5.37-30.17t-18.77-10.5q-17.22,0-25.93,12.63t-8.72,34.3v52.75h-21Z"/><path class="cls-1" d="M1794.1,279.08h-26.82v-17h26.82v-10.5a98.92,98.92,0,0,1,1.67-19.45,36.52,36.52,0,0,1,5.92-14.19,26.74,26.74,0,0,1,11.74-9q7.48-3.14,18.89-3.13a94.13,94.13,0,0,1,14.08,1.34l-.9,17a29.59,29.59,0,0,0-10.06-1.34q-12.51,0-16.42,6.7t-3.91,20.34v12.29h30.17v17h-30.17v97h-21Z"/><path class="cls-1" d="M1860.07,262.09h20.34V280.2h.45a34.31,34.31,0,0,1,15-15.2,46,46,0,0,1,22.35-5.59q21.67,0,32.19,12.63t10.5,36.32v67.72h-21v-59q0-20.55-5.36-30.17t-18.78-10.5q-17.21,0-25.92,12.63t-8.72,34.3v52.75h-21Z"/><path class="cls-1" d="M2076.31,371.39c-.89.3-1.94.67-3.13,1.11a111.18,111.18,0,0,1-14.86,4.58,81.4,81.4,0,0,1-18,1.68q-29.5,0-44.26-16.43t-14.75-45.26a68,68,0,0,1,3.8-23.13A53.55,53.55,0,0,1,1996,275.61a48.41,48.41,0,0,1,17-11.95,54.92,54.92,0,0,1,21.79-4.25q13.86,0,23.58,4.81A40.17,40.17,0,0,1,2074,277.63a57.12,57.12,0,0,1,8.5,20.22,120.66,120.66,0,0,1,2.57,25.93h-81.36a38.45,38.45,0,0,0,3,15.31,37.59,37.59,0,0,0,8.27,12.18,35.62,35.62,0,0,0,12.07,7.82,38.35,38.35,0,0,0,14.19,2.69,50.08,50.08,0,0,0,10.28-1.12,74,74,0,0,0,10.28-2.91,69.55,69.55,0,0,0,8.72-3.8,41.56,41.56,0,0,0,5.81-3.57Zm-13.63-63.26q0-13.62-7.6-22.68t-20.79-9.05a29.56,29.56,0,0,0-13,2.68,26.4,26.4,0,0,0-9.28,7.26,35,35,0,0,0-5.7,10.28,52.9,52.9,0,0,0-2.68,11.51Z"/><path class="cls-1" d="M2167.66,279.08h-30.18v62.36q0,9.6,5,15a16.58,16.58,0,0,0,12.63,5.37,25.86,25.86,0,0,0,14.31-4v17.88c-3.13.9-6.15,1.64-9.06,2.24a44.23,44.23,0,0,1-8.83.89q-16.76,0-25.92-8.16t-9.17-24.92v-66.6h-25.7v-17h25.7V235.72l21-6.71v33.08h30.18Z"/><polygon class="cls-2" points="619.61 534.67 615.47 534.67 615.47 49.33 619.61 49.33 619.61 534.67 619.61 534.67"/><polygon class="cls-3" points="619.49 254.59 649.62 293.25 619.49 331.9 619.49 254.59"/><path class="cls-4" d="M559.29,292.33c0-133.16-107.95-241.11-241.11-241.11S77.06,159.17,77.06,292.33,185,533.45,318.18,533.45,559.29,425.5,559.29,292.33Z"/><path d="M318,534.88A242.62,242.62,0,0,1,146.41,120.71,242.62,242.62,0,0,1,489.52,463.82,241,241,0,0,1,318,534.88Zm0-482.23c-132.13,0-239.62,107.49-239.62,239.62S185.84,531.88,318,531.88,557.58,424.39,557.58,292.27,450.09,52.65,318,52.65Z"/><path class="cls-5" d="M160.54,262.91a555.51,555.51,0,0,1,314.49,0,159.9,159.9,0,0,0-314.49,0Z"/><path class="cls-6" d="M471.08,314.32l4.95.39a162,162,0,0,0,1.61-21q-8.29-.68-16.66-1.29Q466.16,302.62,471.08,314.32Z"/><path class="cls-6" d="M445.22,375.29c2.91.15,5.79.33,8.69.49a159.44,159.44,0,0,0,13.49-27.43q-14.13-.9-28.38-1.66Q442.22,360.29,445.22,375.29Z"/><path class="cls-6" d="M431.07,316.29q3.45,11.9,6.71,25.24,15.8.81,31.41,1.85c1.06-3.11,2-6.28,2.88-9.47-1.86-5.35-3.75-10.53-5.68-15.5Q448.87,317.2,431.07,316.29Z"/><path class="cls-6" d="M401.38,428.21a165,165,0,0,0,13.68-9.42c-4.85-.18-9.7-.36-14.57-.5C400.79,421.55,401.08,424.87,401.38,428.21Z"/><path class="cls-6" d="M413.63,268.17q3.89,8.32,7.6,18.2,16.08.81,31.9,1.9-5-9.93-10.22-18.35Q428.38,268.93,413.63,268.17Z"/><path class="cls-6" d="M412.14,265q14.48.73,28.77,1.72c-1.19-1.82-2.38-3.55-3.59-5.25q-15-3.36-30.15-5.88C408.85,258.57,410.5,261.69,412.14,265Z"/><path class="cls-6" d="M396.65,380q1.69,15.25,3.25,31.84,11.37.35,22.67.79a160.69,160.69,0,0,0,17.64-17.94c-.74-4.43-1.49-8.81-2.26-13.09Q417.42,380.66,396.65,380Z"/><path class="cls-6" d="M396,374.24q20.55.6,40.9,1.58-2.77-15-5.74-28.67-19.26-.93-38.71-1.51Q394.3,359.25,396,374.24Z"/><path class="cls-6" d="M348.12,417.24c.25,10.14.48,20.67.69,31.53a158.77,158.77,0,0,0,44.59-16c-.38-5-.76-9.92-1.14-14.75Q370.27,417.45,348.12,417.24Z"/><path class="cls-6" d="M347.12,379q.44,15.22.85,31.8,21.94.21,43.76.8-1.38-16.59-2.88-31.83Q368.08,379.24,347.12,379Z"/><path class="cls-6" d="M423.81,316.67q-17.87-.84-35.92-1.39,2,11.88,3.85,25.2Q411,341.07,430,342,427,328.61,423.81,316.67Z"/><path class="cls-6" d="M422.58,312.15q-3.21-11.64-6.63-21.82-16.36-.78-32.93-1.28,2.1,10.13,4.11,21.73C399,311.13,410.84,311.59,422.58,312.15Z"/><path class="cls-6" d="M414.71,286.65q-3.43-9.9-7-18.26-14.81-.7-29.79-1.15,2.22,8.29,4.36,18.15Q398.56,285.89,414.71,286.65Z"/><path class="cls-6" d="M376.79,288.87q-16.57-.44-33.29-.61.57,10.1,1.11,21.67,18,.17,35.83.65C379.25,302.85,378.05,295.61,376.79,288.87Z"/><path class="cls-6" d="M377,264.11q14.7.43,29.27,1.13-2.55-5.67-5.18-10.55-14-2.16-28.2-3.59C374.3,255,375.67,259.34,377,264.11Z"/><path class="cls-6" d="M340.66,249q.63,6.39,1.24,14.37,14.85.13,29.58.54c-1.22-4.91-2.47-9.35-3.74-13.36q-10-.92-20-1.46Z"/><path class="cls-6" d="M385.13,345.44q-19.49-.54-39.12-.72.51,13.56.94,28.53,20.73.21,41.33.77Q386.77,359,385.13,345.44Z"/><path class="cls-6" d="M381.11,315.08q-18.08-.48-36.3-.66.53,11.85,1,25.15,19.38.18,38.67.71Q382.86,327,381.11,315.08Z"/><path class="cls-6" d="M299.28,344.74q-.88,13.58-1.71,28.54,20.85-.22,41.6-.09-.26-15-.53-28.53Q319,344.53,299.28,344.74Z"/><path class="cls-6" d="M338.54,339.51q-.27-13.31-.57-25.14-18.21-.12-36.53.07-.93,11.85-1.82,25.15Q319.11,339.38,338.54,339.51Z"/><path class="cls-6" d="M336.33,263.36c-.23-5.31-.47-10.11-.71-14.37-8.95-.06-17.94,0-26.92.06q-1.11,6.39-2.15,14.37Q321.46,263.27,336.33,263.36Z"/><path class="cls-6" d="M337.12,284.56c-.21-6.53-.44-12.57-.66-18.08q-15.13-.11-30.31.07-1,8.26-2,18.08Q320.65,284.45,337.12,284.56Z"/><path class="cls-6" d="M297.26,379.07q-.83,15.21-1.58,31.79,22.07-.24,44-.09-.21-16.57-.46-31.79Q318.29,378.85,297.26,379.07Z"/><path class="cls-6" d="M271.1,264.17q14.94-.45,29.86-.68,1.32-8,2.67-14.38-11.89.18-23.81.53l-3.24.23Q273.79,256.25,271.1,264.17Z"/><path class="cls-6" d="M295.4,417.27c-.48,10.53-.92,21.47-1.35,32.76a160.86,160.86,0,0,0,46.15.19q-.18-17.1-.39-33.05Q317.66,417,295.4,417.27Z"/><path class="cls-6" d="M243.26,412q22.08-.71,44.16-1,.93-16.56,1.95-31.8-21,.3-42.11,1Q245.19,395.38,243.26,412Z"/><path class="cls-6" d="M242.53,418.38c-.51,4.52-1,9.14-1.5,13.81a159,159,0,0,0,44.42,16.33q.78-16.09,1.61-31.15Q264.8,417.67,242.53,418.38Z"/><path class="cls-6" d="M263.86,289.13q-2.55,10.11-5,21.73,18.06-.58,36.15-.83,1.19-11.58,2.42-21.67Q280.66,288.6,263.86,289.13Z"/><path class="cls-6" d="M248.06,374.33q20.85-.66,41.69-.95,1-15,2.14-28.55-19.74.29-39.48.9Q250.16,359.34,248.06,374.33Z"/><path class="cls-6" d="M235.71,265.67q14.88-.8,29.8-1.31,2.88-7.78,5.89-14.07-14.23,1.22-28.37,3.15Q239.31,259,235.71,265.67Z"/><path class="cls-6" d="M258.6,285.67q2.82-9.85,5.77-18.18c-10.11.36-20.24.8-30.33,1.33q-4.35,8.39-8.5,18.3Q242,286.25,258.6,285.67Z"/><path class="cls-6" d="M200.5,267.92q14.76-1.11,29.63-1.94c2.43-4.26,4.91-8.17,7.43-11.78q-15.36,2.28-30.54,5.42Q203.72,263.55,200.5,267.92Z"/><path class="cls-6" d="M216,312.66q18-.95,36.09-1.58,2.66-11.61,5.47-21.74-16.8.59-33.54,1.47Q219.91,301,216,312.66Z"/><path class="cls-6" d="M205.6,347.71q-3.6,13.65-7,28.7,20.79-1.1,41.64-1.82,2.3-15,4.76-28.61Q225.29,346.67,205.6,347.71Z"/><path class="cls-6" d="M251.08,315.58q-18.3.65-36.56,1.61c-2.57,8-5.1,16.42-7.52,25.33h0q19.44-1,39-1.72Q248.45,327.49,251.08,315.58Z"/><path class="cls-6" d="M239.37,380.38q-21,.75-42,1.85c-.84,3.88-1.68,7.86-2.5,11.87a160.24,160.24,0,0,0,18.67,19q10.74-.46,21.48-.84Q237.09,395.65,239.37,380.38Z"/><path class="cls-6" d="M221,419.18c3.9,3,7.93,5.76,12.1,8.36q.52-4.49,1.07-8.88C229.8,418.81,225.41,419,221,419.18Z"/><path class="cls-6" d="M228.37,269.14q-15.15.86-30.17,2-6,8.5-11.69,18.51c10.91-.82,21.88-1.54,32.85-2.16Q223.77,277.53,228.37,269.14Z"/><path class="cls-6" d="M165.61,271q14.59-1.44,29.35-2.6,3-3.92,6-7.45-17.16,3.74-34,8.6C166.52,270,166.06,270.46,165.61,271Z"/><path class="cls-6" d="M207.67,317.56q-18.22,1-36.35,2.4-3.58,8.09-7,16.83,1.23,4.18,2.66,8.26,16.33-1.19,32.75-2.13Q203.57,329.53,207.67,317.56Z"/><path class="cls-6" d="M178.18,293.82c-6.76.53-13.5,1.12-20.23,1.73a160.23,160.23,0,0,0,1.84,20.93c2.29-.19,4.58-.39,6.87-.57Q172.29,304.14,178.18,293.82Z"/><path class="cls-6" d="M198.23,348.11q-14.74.84-29.44,1.89a160.2,160.2,0,0,0,13.84,27.35c2.73-.17,5.46-.35,8.2-.5Q194.4,361.78,198.23,348.11Z"/><path d="M318,464.32c-94.87,0-172.06-77.19-172.06-172s77.19-172,172.06-172,172,77.18,172,172S412.83,464.32,318,464.32Zm0-341.1c-93.22,0-169.06,75.83-169.06,169S224.75,461.32,318,461.32s169-75.84,169-169-75.83-169-169-169Z"/><polygon class="cls-7" points="172.02 424.26 159.65 423.15 158.53 435.52 153.76 429.8 154.87 417.42 167.25 418.54 172.02 424.26"/><polygon class="cls-7" points="184.21 436.71 171.78 436.51 171.58 448.94 166.4 443.58 166.6 431.16 179.02 431.36 184.21 436.71"/><polygon class="cls-7" points="197.49 447.83 185.1 448.77 186.03 461.16 180.38 456.3 179.45 443.91 191.84 442.98 197.49 447.83"/><polygon class="cls-7" points="211.73 457.82 199.47 459.8 201.45 472.07 195.41 467.71 193.42 455.44 205.69 453.45 211.73 457.82"/><polygon class="cls-7" points="226.68 466.57 214.6 469.49 217.51 481.57 211.15 477.69 208.24 465.6 220.32 462.69 226.68 466.57"/><polygon class="cls-7" points="242.32 473.86 230.53 477.81 234.48 489.59 227.81 486.27 223.86 474.48 235.65 470.54 242.32 473.86"/><polygon class="cls-7" points="124.79 332.97 114.68 325.74 107.45 335.85 106.23 328.5 113.46 318.39 123.57 325.62 124.79 332.97"/><polygon class="cls-7" points="129.17 349.8 118.49 343.44 112.13 354.12 110.3 346.9 116.65 336.22 127.33 342.57 129.17 349.8"/><polygon class="cls-7" points="135.01 366.07 123.79 360.72 118.44 371.94 115.95 364.91 121.3 353.69 132.52 359.04 135.01 366.07"/><polygon class="cls-7" points="142.31 381.82 130.67 377.45 126.31 389.09 123.22 382.3 127.59 370.67 139.22 375.03 142.31 381.82"/><polygon class="cls-7" points="150.95 396.81 138.96 393.53 135.67 405.52 131.98 399.04 135.27 387.05 147.25 390.34 150.95 396.81"/><polygon class="cls-7" points="160.9 410.91 148.66 408.78 146.52 421.02 142.23 414.92 144.37 402.68 156.61 404.82 160.9 410.91"/><polygon class="cls-7" points="121.91 315.91 112.5 307.79 104.38 317.2 103.84 309.77 111.96 300.36 121.37 308.48 121.91 315.91"/><polygon class="cls-7" points="463.92 424.26 476.29 423.15 477.41 435.52 482.19 429.8 481.07 417.42 468.69 418.54 463.92 424.26"/><polygon class="cls-7" points="451.73 436.71 464.16 436.51 464.36 448.94 469.55 443.58 469.34 431.16 456.92 431.36 451.73 436.71"/><polygon class="cls-7" points="438.45 447.83 450.85 448.77 449.91 461.16 455.56 456.3 456.5 443.91 444.1 442.98 438.45 447.83"/><polygon class="cls-7" points="424.21 457.82 436.48 459.8 434.5 472.07 440.54 467.71 442.52 455.44 430.25 453.45 424.21 457.82"/><polygon class="cls-7" points="409.27 466.57 421.35 469.49 418.43 481.57 424.79 477.69 427.71 465.6 415.63 462.69 409.27 466.57"/><polygon class="cls-7" points="393.62 473.86 405.41 477.81 401.46 489.59 408.13 486.27 412.08 474.48 400.29 470.54 393.62 473.86"/><polygon class="cls-7" points="511.15 332.97 521.26 325.74 528.49 335.85 529.71 328.5 522.48 318.39 512.37 325.62 511.15 332.97"/><polygon class="cls-7" points="506.78 349.8 517.46 343.44 523.81 354.12 525.65 346.9 519.29 336.22 508.61 342.57 506.78 349.8"/><polygon class="cls-7" points="500.93 366.07 512.15 360.72 517.5 371.94 519.99 364.91 514.64 353.69 503.42 359.04 500.93 366.07"/><polygon class="cls-7" points="493.63 381.82 505.27 377.45 509.63 389.09 512.72 382.3 508.36 370.67 496.72 375.03 493.63 381.82"/><polygon class="cls-7" points="485 396.81 496.98 393.53 500.27 405.52 503.96 399.04 500.67 387.05 488.69 390.34 485 396.81"/><polygon class="cls-7" points="475.04 410.91 487.29 408.78 489.43 421.02 493.71 414.92 491.57 402.68 479.33 404.82 475.04 410.91"/><polygon class="cls-7" points="514.03 315.91 523.44 307.79 531.56 317.2 532.11 309.77 523.98 300.36 514.58 308.48 514.03 315.91"/><path d="M265.64,478.54a89.18,89.18,0,0,0,10.79-.89c-.33,6.9-.33,13.36-.33,19.81,0,7.34,0,12.69.28,13.24s1.33.89,2.84,1.4l2.89.94v.78c-2.95-.22-5.84-.44-8.35-.44s-5.4.22-8.35.44V513l2.9-.94c1.5-.51,2.5-.78,2.84-1.4s.28-5.9.28-13.24c0-9.07.05-15.75-.23-16.08-.44-.56-2.06-1-3.73-1.5l-1.83-.56Z"/><path d="M290.39,512.88c6.34-3.84,12.8-9.08,14.86-16.42v-.11a10.43,10.43,0,0,1-7.74,3c-5.84,0-11-3.45-11-10.35,0-6.12,5.23-11.57,12.63-11.57,6.46,0,11.64,5.67,11.64,13.35,0,12.63-10.63,19.59-19.76,23.49Zm1.11-25.33c0,4.12,1.78,10,7.35,10,3.61,0,6.9-2.06,6.9-8,0-4.34-2.12-10.3-7.29-10.3C293.5,479.26,291.5,483.33,291.5,487.55Z"/><path d="M319.43,512.88c6.34-3.84,12.8-9.08,14.86-16.42v-.11a10.43,10.43,0,0,1-7.74,3c-5.84,0-11-3.45-11-10.35,0-6.12,5.24-11.57,12.64-11.57,6.45,0,11.63,5.67,11.63,13.35,0,12.63-10.63,19.59-19.76,23.49Zm1.11-25.33c0,4.12,1.78,10,7.35,10,3.62,0,6.9-2.06,6.9-8,0-4.34-2.12-10.3-7.29-10.3C322.55,479.26,320.54,483.33,320.54,487.55Z"/><path d="M342.35,501.58c4.46-6.12,13.69-19.09,18.48-23.93h2.95c-.17,3-.17,5.9-.17,8.79v15h6.9v2.5h-6.9v6c0,1.5.39,1.84,2.45,2.45l2.45.72v.78c-2.34-.22-4.68-.44-7-.44-2.73,0-5.46.22-8.18.44V513l3.39-1c1.78-.56,2.23-1,2.23-2.17v-6H342.35Zm16.59-18.37h-.11c-4.68,5.79-9.13,12-13.25,18.2h13.36Z"/><path d="M132.94,284.81l-1.2-5c-.43-1.62-.66-1.83-5.47-2.32-3.75-.4-7.56-.86-11.32-1.2s-7.59-.54-11.35-.82c-5.89-.39-6.34-.37-6.88.78l-2.22,5.1-.88-.08c.52-3,1-6,1.35-9.53.28-3.13.3-6.22.33-9.37l.88.07,1.28,5.42c.34,1.23.77,1.33,6.64,2,3.75.4,7.56.86,11.32,1.19s7.59.55,11.35.83c4.82.36,5.09.2,5.79-1.32l2.06-4.68.88.08c-.52,2.92-1.09,6.53-1.33,9.29-.28,3.13-.36,6.78-.36,9.62Z"/><path d="M109.23,209.87l.3,4.46c.1,1.47.53,2.24,1.6,2.61,4.85,1.58,15.41,5.11,18.91,6.11,2.48.7,9.43,2.68,16.36,4.52L146,229c-6.84,2.24-13.53,4.84-20.26,7.37l-20,7.57,0,.12,6.77,1.93c8,2.27,19.92,5.54,21.12,5.68,1,.1,1.62-.19,2.67-1.79l2.4-3.62.85.24c-1,2.59-2,5.24-2.77,7.9s-1.23,5.2-1.72,7.87l-.85-.24-.44-5.09a2.08,2.08,0,0,0-1-1.85c-1.87-.79-10.75-3.78-18.49-6l-12-3.41-1.43.44a51.68,51.68,0,0,0-3.73,5.08l-.85-.24a49,49,0,0,0,2.14-5.66,43.59,43.59,0,0,0,1.06-5.58,50.42,50.42,0,0,0,7.09-2.17L134.4,227l-.09-.15-14.63-4.17c-2.9-.83-5.88-1.61-8.89-2.27-1.73-.36-2.35,0-3.57,1.53l-2.77,3.52-.85-.24c1-2.41,1.92-4.88,2.62-7.36.78-2.72,1.31-5.5,1.86-8.35Z"/><path d="M139.28,212.13l.41-.78,8.17,1.85a15,15,0,0,0,4.25-5c2.33-4.46,2.44-9.58-2.74-12.28-7.91-4.13-16.34,13.66-26.82,8.2-6.74-3.52-6.77-11.47-3.63-17.49A26.08,26.08,0,0,1,125,179.3l7.46,4.32-.32.61-7.32-1a17.47,17.47,0,0,0-4,5.07,7.49,7.49,0,0,0,2.94,10.12c8.75,4.56,15.62-14,27.16-8,4.85,2.53,8.53,9.06,2.8,20a23.78,23.78,0,0,1-5.86,7.43Z"/><path d="M130.87,166.94c3.56-4.15,7.07-8.26,10.43-12.58s6.49-8.73,9.65-13.2l8.43,6.57-.54.69-5.13-1.6c-2.22-.62-2.81-.28-8.6,7.16l21.61,16.84c2.48,1.93,3.85,2.83,4.77,3.08s2.29-.38,6.46-3.18l.69.55c-2,2.17-3.91,4.2-6.3,7.27s-3.9,5.41-5.51,7.89l-.7-.54c1.7-4.73,2-6.29,1.5-7s-1.67-1.94-4.15-3.87l-21.62-16.84c-5.79,7.44-6,8.09-4.83,10.1l2.81,4.57-.55.7Z"/><path d="M185.29,162.73l2.44-4.49c.76-1.49.73-1.8-2.51-5.39-2.52-2.8-5-5.7-7.6-8.46s-5.27-5.49-7.88-8.21c-4.11-4.24-4.46-4.52-5.63-4l-5.07,2.3-.6-.65c2.39-1.86,4.81-3.78,7.39-6.17,2.3-2.14,4.39-4.42,6.52-6.73l.6.64-2.67,4.88c-.58,1.14-.32,1.5,3.6,5.92,2.52,2.8,5,5.7,7.6,8.46s5.27,5.49,7.88,8.21c3.34,3.5,3.65,3.55,5.18,2.9l4.66-2.1.6.65c-2.34,1.83-5.18,4.12-7.2,6-2.31,2.14-4.81,4.8-6.71,6.91Z"/><path d="M180.21,114c4.69-2.82,9.33-5.61,13.88-8.64s8.91-6.24,13.32-9.47l5.93,8.89-.74.49-4.35-3.14c-1.92-1.29-2.58-1.15-10.43,4.07L213,129c1.74,2.61,2.75,3.9,3.55,4.43s2.29.36,7.13-1l.49.74c-2.6,1.42-5,2.75-8.28,4.91s-5.41,3.9-7.73,5.75l-.48-.74c3.1-3.95,3.83-5.34,3.64-6.2s-1-2.37-2.71-5l-15.19-22.8c-7.85,5.22-8.23,5.78-7.78,8l1.22,5.23-.73.49Z"/><path d="M258.45,75.25l-2.21,2c-1.28,1.23-1.9,2.07-1.48,3.33,1.13,3.33,3.09,8.1,7,18.6,4.23,11.43.27,17.79-8.48,21.13-8.51,3.25-15.86,1.82-19.29-7.17l-6.29-16.5c-1.89-4.93-2.51-6-4.4-6.05l-4.86,0-.31-.82c3-.87,5.81-1.69,8.57-2.74,3.12-1.19,6.08-2.59,9.1-4l.32.82-2.32,2c-2.76,2.46-3.14,2.88-2.48,5,1.15,3.53,3.08,8.58,6.53,17.62,2.87,7.52,6.46,11.8,15.79,8.24,6.17-2.36,8.41-7.59,5.72-14.63-2.76-7.22-6.38-16.54-8.4-20.41-.52-1-1.58-1.15-3.37-1.07l-3.61.24-.31-.82c2.61-.73,5.23-1.46,7.81-2.45,2.23-.85,4.43-2,6.69-3.09Z"/><path d="M270.22,71.89c5.45-.52,10.84-1,16.25-1.79s10.73-1.78,16.11-2.8l1.5,10.58-.87.12-2.57-4.71c-1.18-2-1.83-2.15-11.17-.83l3.86,27.13c.44,3.12.79,4.72,1.29,5.53s1.9,1.32,6.85,2.2l.12.88c-3,.16-5.73.3-9.59.85s-6.56,1.19-9.45,1.85l-.12-.87c4.51-2.23,5.77-3.17,6-4s.14-2.56-.3-5.67l-3.85-27.13c-9.34,1.32-9.92,1.66-10.5,3.9l-1.15,5.24-.88.13Z"/><path d="M313.6,87c.92-12.47,9.4-20.68,22.06-19.75,11.53.85,18.34,9.47,17.5,20.88-.91,12.41-9.09,21.71-21.56,20.79C318.56,108,312.86,97.17,313.6,87Zm32.95,3.67c.76-10.46-1.39-20.64-11.73-21.4-8.72-.64-13.95,6.29-14.6,15.19-1,12.91,3,21.77,12.15,22.44C341.9,107.62,345.92,99.22,346.55,90.69Z"/><path d="M381.23,117.58l5.1.37c1.67.09,1.94-.07,3.87-4.51,1.52-3.45,3.13-6.93,4.59-10.41S397.62,96,399,92.47c2.17-5.49,2.29-5.92,1.36-6.79L396.21,82l.34-.81c2.68,1.41,5.42,2.83,8.66,4.2,2.9,1.22,5.84,2.18,8.83,3.16l-.34.82L408.15,89c-1.27-.06-1.5.32-3.91,5.72-1.52,3.45-3.12,6.93-4.59,10.41s-2.83,7.06-4.24,10.56c-1.81,4.48-1.74,4.79-.51,5.92l3.83,3.38-.35.81c-2.62-1.38-5.88-3-8.43-4.1-2.9-1.21-6.35-2.4-9.06-3.26Z"/><path d="M459.81,117.81l-4.34-1.08c-1.43-.35-2.3-.17-3,.74-3,4.13-9.55,13.12-11.57,16.15-1.43,2.15-5.43,8.17-9.29,14.2l-1.26-.83c0-7.2-.49-14.36-.84-21.54L428.4,104.1l-.11-.07-3.89,5.86c-4.59,6.91-11.34,17.29-11.85,18.38s-.31,1.61.9,3.09l2.72,3.39-.49.74c-2.16-1.74-4.38-3.52-6.68-5.05s-4.59-2.75-7-4l.49-.74,5,1.13a2,2,0,0,0,2.05-.37c1.32-1.53,6.87-9.09,11.33-15.79l6.89-10.36v-1.5a49.5,49.5,0,0,0-3.7-5.1l.49-.73a50.12,50.12,0,0,0,4.74,3.76,42.81,42.81,0,0,0,5,2.71,49.38,49.38,0,0,0-.09,7.4l1.59,29.74.17,0,8.42-12.66c1.67-2.52,3.32-5.11,4.87-7.78.87-1.54.73-2.24-.37-3.87l-2.51-3.71.48-.73c2,1.63,4.07,3.31,6.21,4.73,2.36,1.57,4.85,2.92,7.4,4.31Z"/><path d="M440.93,152.41l4.53,2.37c1.62.89,2,.9,5.48-2.45l16.45-15.71c4.28-4.07,4.46-4.52,3.83-5.82l-2.38-5,.64-.61c3.64,4.17,7,8,10.53,11.76s7.3,7.28,11,10.79c-1.08.95-2.22,1.95-3.26,2.94-1.28,1.22-2.55,2.52-3.78,3.78l-.61-.63,2.28-4.26c.88-1.8.36-2.35-.85-3.62l-9.07-9.5c-1.91,1.64-3.85,3.24-5.67,5L465,146.26l3.82,4c5.25,5.5,5.81,5.91,7.21,5.37l4.35-1.9.61.63c-1.77,1.61-3.54,3.21-5.23,4.82-1.86,1.78-3.54,3.47-5.41,5.34l-.61-.64L472,159.4c.61-1.36.22-2-5-7.45l-3.82-4-8.59,8.2c-3.5,3.34-3.51,3.7-2.61,5.45l2.16,4.63-.64.61c-2.16-2.63-3.8-4.71-6.36-7.39-2.13-2.23-4.39-4.24-6.83-6.43Z"/><path d="M520.65,194.9l-3.47-2.82c-1.15-.92-2-1.13-3-.6-4.46,2.48-14.23,7.81-17.35,9.7-2.2,1.33-8.38,5.08-14.45,8.9l-.78-1.29c3-6.54,5.67-13.21,8.4-19.86l8.07-19.8L498,169l-6,3.65c-7.1,4.3-17.62,10.82-18.55,11.6-.76.68-1,1.32-.5,3.17l1,4.23-.75.46c-1.22-2.5-2.47-5-3.9-7.41s-3-4.44-4.6-6.62l.75-.46,4,3.14a2,2,0,0,0,2,.54c1.85-.82,10.09-5.3,17-9.47l10.65-6.44.65-1.35a53,53,0,0,0-1.18-6.2l.75-.45a49.74,49.74,0,0,0,2.7,5.42,43.35,43.35,0,0,0,3.36,4.58,50.56,50.56,0,0,0-3.24,6.66l-11.21,27.59.17,0,13-7.88c2.58-1.56,5.18-3.21,7.72-5,1.44-1,1.61-1.71,1.31-3.66l-.7-4.43.75-.46c1.12,2.34,2.28,4.73,3.61,6.93,1.47,2.42,3.15,4.71,4.86,7.05Z"/><path d="M519.62,215.28c5.63-1.81,6-2.13,6-3.58l.06-5.56.83-.27c1.37,5,2.59,9.66,4.06,14.21,1.83,5.68,3.89,11.23,5.83,16.41-1.52.43-3.71,1-4.61,1.29s-2.89,1.07-4.25,1.57l-.27-.84,4-3c1.48-1.14,1.32-1.62-.9-8.5-1.11-3.47-2.06-6.2-2.84-8.39-2.13.55-4.4,1.09-6.91,1.9l-7.36,2.37,2,6.22c2.33,7.24,2.67,7.86,4.16,8l4.74.18.28.84c-2.3.67-4.59,1.35-6.8,2.06-2.46.79-4.71,1.59-7.2,2.45l-.27-.83,4-3c1.14-1,1-1.67-1.28-8.9l-2-6.22-8.14,2.62c-2.75.89-5.44,2-7.92,2.89.85,2.83,1.58,5.7,2.45,8.39,2.06,6.4,2.41,7.28,3.32,7.64,1.13.43,3.26.47,7.14.41l.27.84c-1.78.44-3.65.78-5.38,1.34l-4.55,1.47c-.76-3.19-3.5-12.48-4.58-15.83-1.7-5.26-3.79-10.93-5.42-15.16l.84-.27,3,4.1c1.08,1.51,1.4,1.67,6,.18Z"/><path d="M539.39,249.37c.38,5.46.76,10.86,1.4,16.29s1.52,10.77,2.41,16.17l-10.62,1.25-.1-.88,4.78-2.46c2-1.12,2.19-1.77,1.09-11.14l-27.21,3.2c-3.12.36-4.73.68-5.56,1.16s-1.37,1.87-2.37,6.79l-.87.11c-.1-3-.17-5.74-.63-9.61s-1-6.59-1.62-9.5l.88-.1c2.12,4.56,3,5.85,3.87,6.06s2.56.21,5.68-.15l27.22-3.2c-1.1-9.36-1.42-10-3.65-10.58l-5.21-1.29-.11-.87Z"/></svg>